<?xml version="1.0" encoding="UTF-8" standalone="no"?><!-- Generator: Gravit.io --><svg xmlns="http://www.w3.org/2000/svg" xmlns:xlink="http://www.w3.org/1999/xlink" style="isolation:isolate" viewBox="0 0 475.622 50.812" width="475.622pt" height="50.812pt"><defs><clipPath id="_clipPath_GkyYeaEg1qrqPRjd3zNYavQ53jcuFGzf"><rect width="475.622" height="50.812"/></clipPath></defs><g clip-path="url(#_clipPath_GkyYeaEg1qrqPRjd3zNYavQ53jcuFGzf)"><rect width="475.622" height="50.812" style="fill:rgb(16,42,67)"/><path d=" M 8.524 1.69 L 31.178 1.69 L 40.143 49.122 L 24.111 49.122 L 23.329 40.596 L 17.712 40.596 L 16.782 49.122 L 0.563 49.122 L 8.524 1.69 Z  M 17.526 32.188 L 22.883 32.188 L 22.883 32.188 Q 21.693 24.132 20.502 12.296 L 20.502 12.296 L 20.502 12.296 Q 18.121 25.889 17.526 32.188 L 17.526 32.188 Z  M 67.234 1.69 L 80.329 1.69 L 80.329 49.122 L 66.602 49.122 L 58.455 27.559 L 58.455 49.122 L 45.361 49.122 L 45.361 1.69 L 58.455 1.69 L 67.234 23.048 L 67.234 1.69 Z  M 86.476 1.69 L 120.7 1.69 L 120.7 11.182 L 111.4 11.182 L 111.4 49.122 L 95.739 49.122 L 95.739 11.182 L 86.476 11.182 L 86.476 1.69 Z  M 126.81 1.69 L 142.471 1.69 L 142.471 49.122 L 126.81 49.122 L 126.81 1.69 Z  M 149.512 25.596 L 169.265 25.596 L 169.265 33.77 L 149.512 33.77 L 149.512 25.596 Z " fill-rule="evenodd" fill="rgb(196,45,120)" vector-effect="non-scaling-stroke" stroke-width="1.127" stroke="rgb(120,18,68)" stroke-linejoin="miter" stroke-linecap="square" stroke-miterlimit="3"/><path d=" M 204.167 1.69 L 224.59 1.69 L 224.59 49.122 L 210.9 49.122 L 210.9 17.1 L 205.432 49.122 L 195.723 49.122 L 189.957 17.833 L 189.957 49.122 L 176.268 49.122 L 176.268 1.69 L 196.541 1.69 L 196.541 1.69 Q 197.434 5.968 198.439 11.768 L 198.439 11.768 L 200.596 23.839 L 204.167 1.69 Z " fill="none" vector-effect="non-scaling-stroke" stroke-width="1.127" stroke="rgb(190,248,253)" stroke-linejoin="miter" stroke-linecap="square" stroke-miterlimit="3"/><path d=" M 237.805 1.69 L 260.46 1.69 L 269.425 49.122 L 253.392 49.122 L 252.611 40.596 L 246.994 40.596 L 246.064 49.122 L 229.845 49.122 L 237.805 1.69 Z  M 246.808 32.188 L 252.164 32.188 L 252.164 32.188 Q 250.974 24.132 249.784 12.296 L 249.784 12.296 L 249.784 12.296 Q 247.403 25.889 246.808 32.188 L 246.808 32.188 Z " fill-rule="evenodd" fill="none" vector-effect="non-scaling-stroke" stroke-width="1.127" stroke="rgb(190,248,253)" stroke-linejoin="miter" stroke-linecap="square" stroke-miterlimit="3"/><path d=" M 271.964 1.69 L 306.188 1.69 L 306.188 11.182 L 296.888 11.182 L 296.888 49.122 L 281.227 49.122 L 281.227 11.182 L 271.964 11.182 L 271.964 1.69 Z " fill="none" vector-effect="non-scaling-stroke" stroke-width="1.127" stroke="rgb(190,248,253)" stroke-linejoin="miter" stroke-linecap="square" stroke-miterlimit="3"/><path d=" M 312.298 49.122 L 312.298 1.69 L 338.412 1.69 L 338.412 11.182 L 327.959 11.182 L 327.959 20.177 L 337.742 20.177 L 337.742 29.2 L 327.959 29.2 L 327.959 39.63 L 339.454 39.63 L 339.454 49.122 L 312.298 49.122 Z " fill="none" vector-effect="non-scaling-stroke" stroke-width="1.127" stroke="rgb(190,248,253)" stroke-linejoin="miter" stroke-linecap="square" stroke-miterlimit="3"/><path d=" M 346.494 49.122 L 346.494 1.69 L 357.58 1.69 L 357.58 1.69 Q 368.665 1.69 372.589 2.364 L 372.589 2.364 L 372.589 2.364 Q 376.514 3.038 378.988 5.806 L 378.988 5.806 L 378.988 5.806 Q 381.461 8.575 381.461 14.639 L 381.461 14.639 L 381.461 14.639 Q 381.461 20.177 379.713 22.081 L 379.713 22.081 L 379.713 22.081 Q 377.965 23.985 372.831 24.366 L 372.831 24.366 L 372.831 24.366 Q 377.481 25.274 379.081 26.798 L 379.081 26.798 L 379.081 26.798 Q 380.68 28.321 381.071 29.596 L 381.071 29.596 L 381.071 29.596 Q 381.461 30.87 381.461 36.612 L 381.461 36.612 L 381.461 49.122 L 366.917 49.122 L 366.917 33.36 L 366.917 33.36 Q 366.917 29.552 366.154 28.643 L 366.154 28.643 L 366.154 28.643 Q 365.391 27.735 362.155 27.735 L 362.155 27.735 L 362.155 49.122 L 346.494 49.122 Z  M 362.155 9.805 L 362.155 9.805 L 362.155 20.352 L 362.155 20.352 Q 364.796 20.352 365.856 19.781 L 365.856 19.781 L 365.856 19.781 Q 366.917 19.21 366.917 16.075 L 366.917 16.075 L 366.917 13.468 L 366.917 13.468 Q 366.917 11.212 365.894 10.509 L 365.894 10.509 L 365.894 10.509 Q 364.871 9.805 362.155 9.805 Z " fill-rule="evenodd" fill="none" vector-effect="non-scaling-stroke" stroke-width="1.127" stroke="rgb(190,248,253)" stroke-linejoin="miter" stroke-linecap="square" stroke-miterlimit="3"/><path d=" M 390.064 1.69 L 405.725 1.69 L 405.725 49.122 L 390.064 49.122 L 390.064 1.69 Z " fill="none" vector-effect="non-scaling-stroke" stroke-width="1.127" stroke="rgb(190,248,253)" stroke-linejoin="miter" stroke-linecap="square" stroke-miterlimit="3"/><path d=" M 414.551 49.122 L 414.551 1.69 L 440.665 1.69 L 440.665 11.182 L 430.212 11.182 L 430.212 20.177 L 439.996 20.177 L 439.996 29.2 L 430.212 29.2 L 430.212 39.63 L 441.707 39.63 L 441.707 49.122 L 414.551 49.122 Z " fill="none" vector-effect="non-scaling-stroke" stroke-width="1.127" stroke="rgb(190,248,253)" stroke-linejoin="miter" stroke-linecap="square" stroke-miterlimit="3"/><path d=" M 448.748 1.69 L 464.408 1.69 L 464.408 39.63 L 473.931 39.63 L 473.931 49.122 L 448.748 49.122 L 448.748 1.69 Z " fill="none" vector-effect="non-scaling-stroke" stroke-width="1.127" stroke="rgb(190,248,253)" stroke-linejoin="miter" stroke-linecap="square" stroke-miterlimit="3"/></g></svg>